HIERARCHY
ROOT Hips
{
	OFFSET 0.000000 1.471914 24.280096
	CHANNELS 6 Xposition Yposition Zposition Xrotation Yrotation Zrotation
	JOINT Spine
	{
		OFFSET 0.000000 0.900110 1.860670
		CHANNELS 6 Xposition Yposition Zposition Xrotation Yrotation Zrotation
		JOINT Spine1
		{
			OFFSET 0.000000 0.400320 2.270309
			CHANNELS 6 Xposition Yposition Zposition Xrotation Yrotation Zrotation
			JOINT Spine2
			{
				OFFSET 0.000000 0.200920 2.296560
				CHANNELS 6 Xposition Yposition Zposition Xrotation Yrotation Zrotation
				JOINT Spine3
				{
					OFFSET 0.000000 0.000000 2.305330
					CHANNELS 6 Xposition Yposition Zposition Xrotation Yrotation Zrotation
					JOINT Neck
					{
						OFFSET 0.000000 -0.864490 6.051487
						CHANNELS 6 Xposition Yposition Zposition Xrotation Yrotation Zrotation
						JOINT Head
						{
							OFFSET 0.000000 -0.550429 3.121674
							CHANNELS 6 Xposition Yposition Zposition Xrotation Yrotation Zrotation
							End Site
							{
								OFFSET 0.000000 0.000000 3.731750
							}
						}
					}
					JOINT RightShoulder
					{
						OFFSET -0.788280 -1.313800 4.256718
						CHANNELS 6 Xposition Yposition Zposition Xrotation Yrotation Zrotation
						JOINT RightArm
						{
							OFFSET -3.915130 0.000000 0.000000
							CHANNELS 6 Xposition Yposition Zposition Xrotation Yrotation Zrotation
							JOINT RightForeArm
							{
								OFFSET -6.914910 0.000000 0.000000
								CHANNELS 6 Xposition Yposition Zposition Xrotation Yrotation Zrotation
								JOINT RightHand
								{
									OFFSET -6.096219 0.000000 0.000000
									CHANNELS 6 Xposition Yposition Zposition Xrotation Yrotation Zrotation
									JOINT RightHandEnd
									{
										OFFSET -1.749950 0.000000 0.000000
										CHANNELS 6 Xposition Yposition Zposition Xrotation Yrotation Zrotation
										End Site
										{
											OFFSET -1.749950 0.000000 0.000000
										}
									}
									JOINT RightHandThumb1
									{
										OFFSET -0.699980 -1.166630 -0.466648
										CHANNELS 6 Xposition Yposition Zposition Xrotation Yrotation Zrotation
										End Site
										{
											OFFSET -1.690319 -0.452920 0.000000
										}
									}
								}
							}
						}
					}
					JOINT LeftShoulder
					{
						OFFSET 0.788280 -1.313800 4.256718
						CHANNELS 6 Xposition Yposition Zposition Xrotation Yrotation Zrotation
						JOINT LeftArm
						{
							OFFSET 3.915130 0.000000 0.000000
							CHANNELS 6 Xposition Yposition Zposition Xrotation Yrotation Zrotation
							JOINT LeftForeArm
							{
								OFFSET 6.914910 0.000000 0.000000
								CHANNELS 6 Xposition Yposition Zposition Xrotation Yrotation Zrotation
								JOINT LeftHand
								{
									OFFSET 6.096219 0.000000 0.000000
									CHANNELS 6 Xposition Yposition Zposition Xrotation Yrotation Zrotation
									JOINT LeftHandEnd
									{
										OFFSET 1.749950 0.000000 0.000000
										CHANNELS 6 Xposition Yposition Zposition Xrotation Yrotation Zrotation
										End Site
										{
											OFFSET 1.749950 0.000000 0.000000
										}
									}
									JOINT LeftHandThumb1
									{
										OFFSET 0.699980 -1.166630 -0.466648
										CHANNELS 6 Xposition Yposition Zposition Xrotation Yrotation Zrotation
										End Site
										{
											OFFSET 1.690319 -0.452920 0.000000
										}
									}
								}
							}
						}
					}
				}
			}
		}
	}
	JOINT RightUpLeg
	{
		OFFSET -2.338570 -0.252550 -0.551512
		CHANNELS 6 Xposition Yposition Zposition Xrotation Yrotation Zrotation
		JOINT RightLeg
		{
			OFFSET 0.000000 0.000000 -10.744959
			CHANNELS 6 Xposition Yposition Zposition Xrotation Yrotation Zrotation
			JOINT RightFoot
			{
				OFFSET 0.000000 -0.000001 -10.930849
				CHANNELS 6 Xposition Yposition Zposition Xrotation Yrotation Zrotation
				JOINT RightToeBase
				{
					OFFSET 0.000000 -4.087269 -1.487650
					CHANNELS 6 Xposition Yposition Zposition Xrotation Yrotation Zrotation
					End Site
					{
						OFFSET 0.000000 -1.891870 0.000000
					}
				}
			}
		}
	}
	JOINT LeftUpLeg
	{
		OFFSET 2.338570 -0.252550 -0.551512
		CHANNELS 6 Xposition Yposition Zposition Xrotation Yrotation Zrotation
		JOINT LeftLeg
		{
			OFFSET 0.000000 0.000000 -10.744959
			CHANNELS 6 Xposition Yposition Zposition Xrotation Yrotation Zrotation
			JOINT LeftFoot
			{
				OFFSET 0.000000 -0.000001 -10.930849
				CHANNELS 6 Xposition Yposition Zposition Xrotation Yrotation Zrotation
				JOINT LeftToeBase
				{
					OFFSET 0.000000 -4.087269 -1.487650
					CHANNELS 6 Xposition Yposition Zposition Xrotation Yrotation Zrotation
					End Site
					{
						OFFSET 0.000000 -1.891870 0.000000
					}
				}
			}
		}
	}
}
MOTION
Frames: 4
Frame Time: 0.041667
0.000069 26.559280 40.331474 -13.114894 12.540958 -21.481017 -0.000000 0.900096 1.860694 32.082751 -8.684664 -0.397106 -0.000006 0.400309 2.270287 -0.000003 -0.000002 0.000002 0.000017 0.200921 2.296537 0.000001 -0.000001 -0.000002 0.000003 -0.000036 2.305356 -0.000020 0.000002 -1.487288 -0.000008 -0.864471 6.051501 -10.097680 -0.487190 -168.086789 0.000021 -0.550452 3.121712 0.000004 -0.000000 -0.000001 -0.788289 -1.313749 4.256758 -159.798163 53.068039 -33.097925 -3.915112 -0.000002 -0.000019 -0.000007 -0.000000 -0.000003 -6.914884 -0.000002 0.000002 0.000018 0.000025 -22.521565 -6.096196 -0.000011 0.000007 -0.000046 -0.000016 -0.000044 -1.749923 0.000009 0.000004 -0.000001 -0.000004 0.000000 -0.700019 -1.166629 -0.466652 0.000004 -0.000002 -0.000005 0.788272 -1.313811 4.256719 -117.065071 -35.584825 77.040258 3.915162 -0.000005 0.000011 0.000003 0.000002 -0.000000 6.914904 -0.000011 -0.000033 0.000010 -0.000004 29.354415 6.096222 0.000061 0.000004 -0.000006 0.000021 -0.000014 1.749944 0.000013 0.000015 -0.000002 0.000002 -0.000000 0.699973 -1.166598 -0.466670 0.000007 -0.000003 -0.000018 -2.338585 -0.252552 -0.551527 23.847401 -7.034719 -0.297872 0.000007 -0.000015 -10.744947 8.666457 2.450249 -1.160925 -0.000015 0.000009 -10.930861 0.000010 -0.000003 -0.000003 0.000016 -4.087264 -1.487638 0.000002 0.000000 0.000000 2.338569 -0.252551 -0.551488 20.889285 -5.875112 -0.267223 -0.000003 -0.000012 -10.744921 8.483892 -5.208026 -0.988974 -0.000004 -0.000008 -10.930868 0.000034 -0.000004 0.000001 -0.000011 -4.087221 -1.487654 0.000003 -0.000001 -0.000001 
0.000058 26.559294 40.331497 -13.351576 12.618989 -21.488023 -0.000002 0.900095 1.860695 32.397302 -8.805635 -0.467238 -0.000005 0.400305 2.270289 -0.000004 -0.000002 0.000001 0.000016 0.200922 2.296543 0.000000 -0.000000 -0.000001 0.000003 -0.000041 2.305360 -0.000021 0.000004 -1.998129 -0.000008 -0.864484 6.051503 -9.919488 -0.035616 -167.745744 0.000019 -0.550455 3.121704 0.000001 -0.000000 -0.000004 -0.788288 -1.313759 4.256753 -160.926511 51.549070 -33.410741 -3.915110 0.000004 -0.000023 -0.000006 0.000002 -0.000003 -6.914877 -0.000003 0.000003 0.000018 0.000028 -23.124857 -6.096198 -0.000011 0.000006 -0.000050 -0.000014 -0.000044 -1.749933 0.000009 0.000007 0.000001 -0.000000 0.000001 -0.700027 -1.166634 -0.466649 0.000004 0.000001 -0.000006 0.788273 -1.313822 4.256716 -117.778621 -33.118979 79.221008 3.915161 -0.000006 0.000011 0.000001 0.000003 0.000000 6.914904 -0.000013 -0.000030 0.000009 0.000001 32.417300 6.096219 0.000055 0.000003 -0.000009 0.000017 -0.000015 1.749942 0.000016 0.000016 -0.000001 -0.000001 -0.000001 0.699974 -1.166596 -0.466669 0.000009 -0.000004 -0.000021 -2.338587 -0.252555 -0.551520 23.746845 -6.763217 -0.346142 0.000007 -0.000014 -10.744952 9.018343 2.261127 -1.182874 -0.000014 0.000008 -10.930858 0.000010 -0.000003 -0.000004 0.000016 -4.087265 -1.487639 0.000006 0.000001 -0.000002 2.338567 -0.252553 -0.551484 21.267577 -5.818477 -0.316649 -0.000002 -0.000015 -10.744923 8.548667 -5.007944 -1.004350 -0.000002 -0.000008 -10.930866 0.000038 -0.000003 -0.000000 -0.000011 -4.087216 -1.487652 0.000000 -0.000002 0.000000 
0.000049 26.559313 40.331551 -13.576650 12.499739 -21.591089 -0.000002 0.900101 1.860700 32.342827 -8.702355 -0.563432 -0.000005 0.400306 2.270300 -0.000003 -0.000002 -0.000001 0.000016 0.200917 2.296541 0.000003 0.000000 -0.000004 0.000002 -0.000037 2.305364 -0.000020 0.000003 -2.822599 -0.000007 -0.864475 6.051495 -9.889645 -0.080156 -166.973933 0.000022 -0.550451 3.121708 0.000002 -0.000000 -0.000000 -0.788285 -1.313755 4.256748 -161.593533 50.902794 -33.989692 -3.915111 0.000000 -0.000019 -0.000006 -0.000002 -0.000003 -6.914879 -0.000007 0.000001 0.000020 0.000029 -22.926604 -6.096191 -0.000016 0.000002 -0.000047 -0.000018 -0.000044 -1.749928 0.000010 0.000004 0.000001 -0.000001 -0.000002 -0.700019 -1.166631 -0.466662 0.000006 0.000002 -0.000003 0.788272 -1.313817 4.256711 -118.252827 -31.203484 80.863846 3.915154 -0.000006 0.000004 0.000001 0.000002 -0.000001 6.914907 -0.000011 -0.000030 0.000008 0.000001 35.075286 6.096221 0.000059 0.000003 -0.000008 0.000018 -0.000012 1.749943 0.000014 0.000009 -0.000002 -0.000002 -0.000002 0.699973 -1.166598 -0.466673 0.000009 -0.000005 -0.000017 -2.338585 -0.252549 -0.551519 24.001534 -6.473870 -0.422377 0.000007 -0.000009 -10.744947 9.252780 2.298850 -1.192466 -0.000015 0.000008 -10.930862 0.000010 -0.000004 -0.000002 0.000015 -4.087264 -1.487637 -0.000000 0.000000 -0.000002 2.338569 -0.252550 -0.551483 21.587988 -5.617118 -0.387626 -0.000002 -0.000017 -10.744916 8.683843 -4.264341 -1.011798 -0.000001 -0.000008 -10.930870 0.000036 -0.000003 -0.000002 -0.000013 -4.087214 -1.487652 0.000002 -0.000001 -0.000003 
0.000041 26.559320 40.331581 -13.657070 12.404881 -21.748220 -0.000003 0.900100 1.860690 32.322801 -8.372471 -0.535696 -0.000005 0.400308 2.270298 -0.000005 -0.000001 0.000003 0.000016 0.200927 2.296543 0.000001 0.000000 -0.000001 0.000003 -0.000037 2.305360 -0.000019 0.000005 -3.475766 -0.000009 -0.864473 6.051497 -9.741436 -0.435651 -166.514917 0.000020 -0.550452 3.121716 0.000001 -0.000000 -0.000004 -0.788285 -1.313754 4.256754 -160.563213 49.989974 -35.766658 -3.915114 0.000001 -0.000027 -0.000006 0.000002 -0.000003 -6.914881 -0.000007 0.000010 0.000018 0.000027 -22.952523 -6.096190 -0.000014 0.000006 -0.000048 -0.000025 -0.000046 -1.749926 0.000013 0.000000 0.000001 -0.000001 0.000000 -0.700023 -1.166631 -0.466659 0.000009 0.000004 -0.000005 0.788273 -1.313814 4.256717 -118.499383 -30.262253 81.833944 3.915158 -0.000006 0.000011 0.000001 0.000002 -0.000000 6.914909 -0.000010 -0.000031 0.000008 0.000004 37.199942 6.096218 0.000063 0.000000 -0.000012 0.000020 -0.000015 1.749942 0.000014 0.000019 -0.000004 -0.000002 -0.000003 0.699964 -1.166596 -0.466665 0.000009 -0.000006 -0.000015 -2.338586 -0.252552 -0.551530 24.118151 -6.263287 -0.403565 0.000008 -0.000012 -10.744955 9.022138 2.310836 -1.122392 -0.000017 0.000009 -10.930859 0.000012 -0.000002 -0.000005 0.000017 -4.087262 -1.487637 0.000003 0.000001 -0.000003 2.338567 -0.252550 -0.551489 21.903174 -5.692144 -0.374542 -0.000002 -0.000016 -10.744921 8.476200 -3.324169 -0.988991 -0.000001 -0.000011 -10.930866 0.000034 -0.000005 -0.000001 -0.000013 -4.087219 -1.487654 0.000002 -0.000001 -0.000001 
